# xmcd
#
# Track frame offsets: 
#        150
#        30435
#        53847
#        72225
#        108627
#        124565
#        145095
#        161490
#        180940
#        199025
#        217780
#        268712
#        286095
#
# Disc length: 4215 seconds
#
# Revision: 0
# Processed by: cddbd v1.5.2PL0 Copyright (c) Steve Scherf et al.
# Submitted via: ExactAudioCopy v0.95b4
#
DISCID=af10750d
DTITLE=Various Artist - Blues Before Sunrise
DYEAR=1900
DGENRE=Blues
TTITLE0=Big Wheeler/I'm Ready
TTITLE1=Big Wheeler/Down in Virginia
TTITLE2=Big Wheeler/She Loves Another Man
TTITLE3=Big Wheeler/Got a Feeling (I Got the Blues)
TTITLE4=Big Wheeler/I Gotta Go
TTITLE5=John Brim/Be Careful
TTITLE6=John Brim/Lonesome ManBlues
TTITLE7=John Brim/ToughTimes
TTITLE8=John Brim/Ice Cream Man
TTITLE9=Billy Boy Arnold/Streetwise Advisor
TTITLE10=Billy Boy Arnold/Billy Boy Medley: Stormy Monday, Broken Hear
TTITLE10=ted Blues, Sonny Boy's Jump
TTITLE11=Jimmy Burns/You're the One
TTITLE12=Jimmy Burns/Leaving Here Walking
EXTD=
EXTT0=
EXTT1=
EXTT2=
EXTT3=
EXTT4=
EXTT5=
EXTT6=
EXTT7=
EXTT8=
EXTT9=
EXTT10=
EXTT11=
EXTT12=
PLAYORDER=
